<?xml version="1.0" encoding="UTF-8" standalone="no"?>
<!DOCTYPE svg PUBLIC "-//W3C//DTD SVG 1.1//EN"
 "http://www.w3.org/Graphics/SVG/1.1/DTD/svg11.dtd">
<!-- Generated by graphviz version 2.38.0 (20140413.2041)
 -->
<!-- Title: G Pages: 1 -->
<svg width="591pt" height="288pt"
 viewBox="0.00 0.00 591.33 288.00" xmlns="http://www.w3.org/2000/svg" xmlns:xlink="http://www.w3.org/1999/xlink">
<g id="graph0" class="graph" transform="scale(1 1) rotate(0) translate(4 284)">
<title>G</title>
<polygon fill="white" stroke="none" points="-4,4 -4,-284 587.333,-284 587.333,4 -4,4"/>
<!-- 25 -->
<g id="node1" class="node"><title>25</title>
<ellipse fill="red" stroke="black" cx="212.494" cy="-180" rx="21.5" ry="21.5"/>
<text text-anchor="middle" x="212.494" y="-173.8" font-family="Helvetica,sans-Serif" font-size="24.00" fill="white">25</text>
</g>
<!-- 15 -->
<g id="node6" class="node"><title>15</title>
<ellipse fill="black" stroke="black" cx="55.4941" cy="-101" rx="21.5" ry="21.5"/>
<text text-anchor="middle" x="55.4941" y="-94.8" font-family="Helvetica,sans-Serif" font-size="24.00" fill="white">15</text>
</g>
<!-- 25&#45;&gt;15 -->
<g id="edge3" class="edge"><title>25&#45;&gt;15</title>
<path fill="none" stroke="black" d="M193.556,-169.712C166.209,-156.3 115.466,-131.413 83.7011,-115.834"/>
<polygon fill="black" stroke="black" points="85.0187,-112.582 74.4991,-111.321 81.9363,-118.867 85.0187,-112.582"/>
</g>
<!-- 35 -->
<g id="node7" class="node"><title>35</title>
<ellipse fill="black" stroke="black" cx="212.494" cy="-101" rx="21.5" ry="21.5"/>
<text text-anchor="middle" x="212.494" y="-94.8" font-family="Helvetica,sans-Serif" font-size="24.00" fill="white">35</text>
</g>
<!-- 25&#45;&gt;35 -->
<g id="edge4" class="edge"><title>25&#45;&gt;35</title>
<path fill="none" stroke="black" d="M212.494,-158.365C212.494,-150.511 212.494,-141.382 212.494,-132.788"/>
<polygon fill="black" stroke="black" points="215.994,-132.692 212.494,-122.692 208.994,-132.692 215.994,-132.692"/>
</g>
<!-- 85 -->
<g id="node2" class="node"><title>85</title>
<ellipse fill="red" stroke="black" cx="370.494" cy="-180" rx="21.5" ry="21.5"/>
<text text-anchor="middle" x="370.494" y="-173.8" font-family="Helvetica,sans-Serif" font-size="24.00" fill="white">85</text>
</g>
<!-- 65 -->
<g id="node8" class="node"><title>65</title>
<ellipse fill="black" stroke="black" cx="370.494" cy="-101" rx="21.5" ry="21.5"/>
<text text-anchor="middle" x="370.494" y="-94.8" font-family="Helvetica,sans-Serif" font-size="24.00" fill="white">65</text>
</g>
<!-- 85&#45;&gt;65 -->
<g id="edge5" class="edge"><title>85&#45;&gt;65</title>
<path fill="none" stroke="black" d="M370.494,-158.365C370.494,-150.511 370.494,-141.382 370.494,-132.788"/>
<polygon fill="black" stroke="black" points="373.994,-132.692 370.494,-122.692 366.994,-132.692 373.994,-132.692"/>
</g>
<!-- 95 -->
<g id="node9" class="node"><title>95</title>
<ellipse fill="black" stroke="black" cx="527.494" cy="-101" rx="21.5" ry="21.5"/>
<text text-anchor="middle" x="527.494" y="-94.8" font-family="Helvetica,sans-Serif" font-size="24.00" fill="white">95</text>
</g>
<!-- 85&#45;&gt;95 -->
<g id="edge6" class="edge"><title>85&#45;&gt;95</title>
<path fill="none" stroke="black" d="M389.432,-169.712C416.779,-156.3 467.522,-131.413 499.287,-115.834"/>
<polygon fill="black" stroke="black" points="501.052,-118.867 508.489,-111.321 497.97,-112.582 501.052,-118.867"/>
</g>
<!-- 55 -->
<g id="node3" class="node"><title>55</title>
<ellipse fill="red" stroke="black" cx="290.494" cy="-22" rx="21.5" ry="21.5"/>
<text text-anchor="middle" x="290.494" y="-15.8" font-family="Helvetica,sans-Serif" font-size="24.00" fill="white">55</text>
</g>
<!-- 75 -->
<g id="node4" class="node"><title>75</title>
<ellipse fill="red" stroke="black" cx="447.494" cy="-22" rx="21.5" ry="21.5"/>
<text text-anchor="middle" x="447.494" y="-15.8" font-family="Helvetica,sans-Serif" font-size="24.00" fill="white">75</text>
</g>
<!-- 45 -->
<g id="node5" class="node"><title>45</title>
<ellipse fill="black" stroke="black" cx="290.494" cy="-259" rx="21.5" ry="21.5"/>
<text text-anchor="middle" x="290.494" y="-252.8" font-family="Helvetica,sans-Serif" font-size="24.00" fill="white">45</text>
</g>
<!-- 45&#45;&gt;25 -->
<g id="edge1" class="edge"><title>45&#45;&gt;25</title>
<path fill="none" stroke="black" d="M275.455,-243.154C263.909,-231.756 247.788,-215.842 234.75,-202.971"/>
<polygon fill="black" stroke="black" points="237.063,-200.335 227.487,-195.801 232.145,-205.317 237.063,-200.335"/>
</g>
<!-- 45&#45;&gt;85 -->
<g id="edge2" class="edge"><title>45&#45;&gt;85</title>
<path fill="none" stroke="black" d="M305.541,-243.517C317.422,-232.082 334.192,-215.941 347.716,-202.924"/>
<polygon fill="black" stroke="black" points="350.464,-205.136 355.242,-195.68 345.61,-200.093 350.464,-205.136"/>
</g>
<!-- 65&#45;&gt;55 -->
<g id="edge7" class="edge"><title>65&#45;&gt;55</title>
<path fill="none" stroke="black" d="M355.447,-85.5169C343.566,-74.0819 326.796,-57.9405 313.272,-44.9238"/>
<polygon fill="black" stroke="black" points="315.378,-42.093 305.746,-37.68 310.524,-47.1364 315.378,-42.093"/>
</g>
<!-- 65&#45;&gt;75 -->
<g id="edge8" class="edge"><title>65&#45;&gt;75</title>
<path fill="none" stroke="black" d="M385.34,-85.1536C396.738,-73.7557 412.652,-57.8418 425.524,-44.9705"/>
<polygon fill="black" stroke="black" points="428.097,-47.3468 432.693,-37.8008 423.147,-42.397 428.097,-47.3468"/>
</g>
</g>
</svg>
