<?xml version="1.0" encoding="UTF-8" standalone="no"?>
<!DOCTYPE svg PUBLIC "-//W3C//DTD SVG 1.1//EN"
 "http://www.w3.org/Graphics/SVG/1.1/DTD/svg11.dtd">
<!-- Generated by graphviz version 2.38.0 (20140413.2041)
 -->
<!-- Title: G Pages: 1 -->
<svg width="320pt" height="116pt"
 viewBox="0.00 0.00 320.10 116.00" xmlns="http://www.w3.org/2000/svg" xmlns:xlink="http://www.w3.org/1999/xlink">
<g id="graph0" class="graph" transform="scale(1 1) rotate(0) translate(4 112)">
<title>G</title>
<polygon fill="white" stroke="none" points="-4,4 -4,-112 316.096,-112 316.096,4 -4,4"/>
<!-- 4, 10, 14 -->
<g id="node1" class="node"><title>4, 10, 14</title>
<ellipse fill="none" stroke="black" cx="135" cy="-90" rx="44.6926" ry="18"/>
<text text-anchor="middle" x="135" y="-86.3" font-family="Times,serif" font-size="14.00">4, 10, 14</text>
</g>
<!-- 2 -->
<g id="node2" class="node"><title>2</title>
<ellipse fill="none" stroke="black" cx="27" cy="-18" rx="27" ry="18"/>
<text text-anchor="middle" x="27" y="-14.3" font-family="Times,serif" font-size="14.00">2</text>
</g>
<!-- 4, 10, 14&#45;&gt;2 -->
<g id="edge1" class="edge"><title>4, 10, 14&#45;&gt;2</title>
<path fill="none" stroke="black" d="M112.36,-74.3257C95.5045,-63.4011 72.4115,-48.4334 54.495,-36.8208"/>
<polygon fill="black" stroke="black" points="55.9533,-33.5952 45.6581,-31.0932 52.146,-39.4692 55.9533,-33.5952"/>
</g>
<!-- 6, 8 -->
<g id="node3" class="node"><title>6, 8</title>
<ellipse fill="none" stroke="black" cx="99" cy="-18" rx="27" ry="18"/>
<text text-anchor="middle" x="99" y="-14.3" font-family="Times,serif" font-size="14.00">6, 8</text>
</g>
<!-- 4, 10, 14&#45;&gt;6, 8 -->
<g id="edge2" class="edge"><title>4, 10, 14&#45;&gt;6, 8</title>
<path fill="none" stroke="black" d="M126.285,-72.055C122.023,-63.7665 116.803,-53.6178 112.075,-44.4241"/>
<polygon fill="black" stroke="black" points="115.073,-42.5992 107.386,-35.307 108.847,-45.8006 115.073,-42.5992"/>
</g>
<!-- 12 -->
<g id="node4" class="node"><title>12</title>
<ellipse fill="none" stroke="black" cx="171" cy="-18" rx="27" ry="18"/>
<text text-anchor="middle" x="171" y="-14.3" font-family="Times,serif" font-size="14.00">12</text>
</g>
<!-- 4, 10, 14&#45;&gt;12 -->
<g id="edge3" class="edge"><title>4, 10, 14&#45;&gt;12</title>
<path fill="none" stroke="black" d="M143.715,-72.055C147.977,-63.7665 153.197,-53.6178 157.925,-44.4241"/>
<polygon fill="black" stroke="black" points="161.153,-45.8006 162.614,-35.307 154.927,-42.5992 161.153,-45.8006"/>
</g>
<!-- 16, 18, 20 -->
<g id="node5" class="node"><title>16, 18, 20</title>
<ellipse fill="none" stroke="black" cx="264" cy="-18" rx="48.1917" ry="18"/>
<text text-anchor="middle" x="264" y="-14.3" font-family="Times,serif" font-size="14.00">16, 18, 20</text>
</g>
<!-- 4, 10, 14&#45;&gt;16, 18, 20 -->
<g id="edge4" class="edge"><title>4, 10, 14&#45;&gt;16, 18, 20</title>
<path fill="none" stroke="black" d="M160.486,-75.1703C180.018,-64.5717 207.195,-49.8247 228.801,-38.1003"/>
<polygon fill="black" stroke="black" points="230.561,-41.1273 237.681,-33.2816 227.222,-34.9748 230.561,-41.1273"/>
</g>
</g>
</svg>
