<?xml version="1.0" encoding="UTF-8" standalone="no"?>
<!DOCTYPE svg PUBLIC "-//W3C//DTD SVG 1.1//EN"
 "http://www.w3.org/Graphics/SVG/1.1/DTD/svg11.dtd">
<!-- Generated by graphviz version 2.38.0 (20140413.2041)
 -->
<!-- Title: G Pages: 1 -->
<svg width="222pt" height="116pt"
 viewBox="0.00 0.00 222.10 116.00" xmlns="http://www.w3.org/2000/svg" xmlns:xlink="http://www.w3.org/1999/xlink">
<g id="graph0" class="graph" transform="scale(1 1) rotate(0) translate(4 112)">
<title>G</title>
<polygon fill="white" stroke="none" points="-4,4 -4,-112 218.097,-112 218.097,4 -4,4"/>
<!-- 20, 40 -->
<g id="node1" class="node"><title>20, 40</title>
<ellipse fill="none" stroke="black" cx="99" cy="-90" rx="35.194" ry="18"/>
<text text-anchor="middle" x="99" y="-86.3" font-family="Times,serif" font-size="14.00">20, 40</text>
</g>
<!-- 10 -->
<g id="node2" class="node"><title>10</title>
<ellipse fill="none" stroke="black" cx="27" cy="-18" rx="27" ry="18"/>
<text text-anchor="middle" x="27" y="-14.3" font-family="Times,serif" font-size="14.00">10</text>
</g>
<!-- 20, 40&#45;&gt;10 -->
<g id="edge1" class="edge"><title>20, 40&#45;&gt;10</title>
<path fill="none" stroke="black" d="M83.3771,-73.811C73.2958,-64.0098 60.0358,-51.1181 48.9084,-40.2999"/>
<polygon fill="black" stroke="black" points="51.2207,-37.6664 41.6109,-33.2051 46.3411,-42.6854 51.2207,-37.6664"/>
</g>
<!-- 30 -->
<g id="node3" class="node"><title>30</title>
<ellipse fill="none" stroke="black" cx="99" cy="-18" rx="27" ry="18"/>
<text text-anchor="middle" x="99" y="-14.3" font-family="Times,serif" font-size="14.00">30</text>
</g>
<!-- 20, 40&#45;&gt;30 -->
<g id="edge2" class="edge"><title>20, 40&#45;&gt;30</title>
<path fill="none" stroke="black" d="M99,-71.6966C99,-63.9827 99,-54.7125 99,-46.1124"/>
<polygon fill="black" stroke="black" points="102.5,-46.1043 99,-36.1043 95.5001,-46.1044 102.5,-46.1043"/>
</g>
<!-- 55, 60 -->
<g id="node4" class="node"><title>55, 60</title>
<ellipse fill="none" stroke="black" cx="179" cy="-18" rx="35.194" ry="18"/>
<text text-anchor="middle" x="179" y="-14.3" font-family="Times,serif" font-size="14.00">55, 60</text>
</g>
<!-- 20, 40&#45;&gt;55, 60 -->
<g id="edge3" class="edge"><title>20, 40&#45;&gt;55, 60</title>
<path fill="none" stroke="black" d="M115.966,-74.1548C127.103,-64.4101 141.853,-51.5035 154.285,-40.6255"/>
<polygon fill="black" stroke="black" points="156.838,-43.0429 162.059,-33.8238 152.228,-37.7749 156.838,-43.0429"/>
</g>
</g>
</svg>
