<?xml version="1.0" encoding="UTF-8" standalone="no"?>
<!DOCTYPE svg PUBLIC "-//W3C//DTD SVG 1.1//EN"
 "http://www.w3.org/Graphics/SVG/1.1/DTD/svg11.dtd">
<!-- Generated by graphviz version 2.38.0 (20140413.2041)
 -->
<!-- Title: G Pages: 1 -->
<svg width="310pt" height="116pt"
 viewBox="0.00 0.00 310.45 116.00" xmlns="http://www.w3.org/2000/svg" xmlns:xlink="http://www.w3.org/1999/xlink">
<g id="graph0" class="graph" transform="scale(1 1) rotate(0) translate(4 112)">
<title>G</title>
<polygon fill="white" stroke="none" points="-4,4 -4,-112 306.447,-112 306.447,4 -4,4"/>
<!-- 35, 65, 85 -->
<g id="node1" class="node"><title>35, 65, 85</title>
<ellipse fill="none" stroke="black" cx="162.447" cy="-90" rx="48.9926" ry="18"/>
<text text-anchor="middle" x="162.447" y="-86.3" font-family="Times,serif" font-size="14.00">35, 65, 85</text>
</g>
<!-- 16, 25 -->
<g id="node2" class="node"><title>16, 25</title>
<ellipse fill="none" stroke="black" cx="34.4469" cy="-18" rx="34.394" ry="18"/>
<text text-anchor="middle" x="34.4469" y="-14.3" font-family="Times,serif" font-size="14.00">16, 25</text>
</g>
<!-- 35, 65, 85&#45;&gt;16, 25 -->
<g id="edge1" class="edge"><title>35, 65, 85&#45;&gt;16, 25</title>
<path fill="none" stroke="black" d="M136.235,-74.6655C116.012,-63.6059 87.9456,-48.2571 66.4053,-36.4772"/>
<polygon fill="black" stroke="black" points="68.0683,-33.3975 57.6152,-31.6701 64.7096,-39.5391 68.0683,-33.3975"/>
</g>
<!-- 45, 55 -->
<g id="node3" class="node"><title>45, 55</title>
<ellipse fill="none" stroke="black" cx="122.447" cy="-18" rx="35.9954" ry="18"/>
<text text-anchor="middle" x="122.447" y="-14.3" font-family="Times,serif" font-size="14.00">45, 55</text>
</g>
<!-- 35, 65, 85&#45;&gt;45, 55 -->
<g id="edge2" class="edge"><title>35, 65, 85&#45;&gt;45, 55</title>
<path fill="none" stroke="black" d="M152.764,-72.055C148.047,-63.8006 142.276,-53.7014 137.04,-44.5378"/>
<polygon fill="black" stroke="black" points="140.041,-42.7349 132.041,-35.789 133.963,-46.2079 140.041,-42.7349"/>
</g>
<!-- 75 -->
<g id="node4" class="node"><title>75</title>
<ellipse fill="none" stroke="black" cx="203.447" cy="-18" rx="27" ry="18"/>
<text text-anchor="middle" x="203.447" y="-14.3" font-family="Times,serif" font-size="14.00">75</text>
</g>
<!-- 35, 65, 85&#45;&gt;75 -->
<g id="edge3" class="edge"><title>35, 65, 85&#45;&gt;75</title>
<path fill="none" stroke="black" d="M172.372,-72.055C177.278,-63.6793 183.296,-53.4039 188.726,-44.1341"/>
<polygon fill="black" stroke="black" points="191.862,-45.7048 193.896,-35.307 185.822,-42.1669 191.862,-45.7048"/>
</g>
<!-- 95 -->
<g id="node5" class="node"><title>95</title>
<ellipse fill="none" stroke="black" cx="275.447" cy="-18" rx="27" ry="18"/>
<text text-anchor="middle" x="275.447" y="-14.3" font-family="Times,serif" font-size="14.00">95</text>
</g>
<!-- 35, 65, 85&#45;&gt;95 -->
<g id="edge4" class="edge"><title>35, 65, 85&#45;&gt;95</title>
<path fill="none" stroke="black" d="M186.411,-74.1548C204.339,-63.0494 228.895,-47.8372 247.679,-36.2014"/>
<polygon fill="black" stroke="black" points="249.724,-39.0518 256.382,-30.8102 246.038,-33.101 249.724,-39.0518"/>
</g>
</g>
</svg>
